<?xml version="1.0" encoding="UTF-8" standalone="no"?>
<!-- Generator: Adobe Illustrator 15.1.0, SVG Export Plug-In . SVG Version: 6.00 Build 0)  -->
<svg xmlns:dc="http://purl.org/dc/elements/1.1/" xmlns:cc="http://creativecommons.org/ns#" xmlns:rdf="http://www.w3.org/1999/02/22-rdf-syntax-ns#" xmlns:svg="http://www.w3.org/2000/svg" xmlns="http://www.w3.org/2000/svg" xmlns:xlink="http://www.w3.org/1999/xlink" xmlns:sodipodi="http://sodipodi.sourceforge.net/DTD/sodipodi-0.dtd" xmlns:inkscape="http://www.inkscape.org/namespaces/inkscape" version="1.1" x="0px" y="0px" width="770" height="500" viewBox="0 0 770 500" enable-background="new 0 0 622 452" xml:space="preserve" id="svg4593" inkscape:version="0.91 r13725" sodipodi:docname="github-repo-after-first-push.svg">
<metadata id="metadata4778">
    <rdf:RDF>
        <cc:Work rdf:about="">
            <dc:format>image/svg+xml</dc:format>
            <dc:type rdf:resource="http://purl.org/dc/dcmitype/StillImage"/>
            <dc:title/>
        </cc:Work>
    </rdf:RDF>
</metadata>
<g id="g5357" transform="translate(0,-40)">
    <g id="g5130">
        <g id="Layer_5">
            <g id="g4654">
                <path stroke-miterlimit="10" d="m 598,63 c 0,-8.284 -6.716,-15 -15,-15 l -385,0 c -8.284,0 -15,6.716 -15,15 l 0,167 c 0,8.284 6.716,15 15,15 l 385,0 c 8.284,0 15,-6.716 15,-15 l 0,-167 z" id="path4656" style="fill:#b5b5b5;stroke:#ffffff;stroke-miterlimit:10"/>
                  <text transform="matrix(1 0 0 1 197 75)" font-family="'Consolas'" font-size="18">local .git</text>
            </g>
        </g>
        <g id="Layer_1">
            <g id="g4721">
                <rect x="24" y="85" width="100" height="128" id="rect4723" style="fill:#dcdee0"/>
                <rect x="24" y="85" width="100" height="128" id="rect4725" style="fill:none;stroke:#85888d;stroke-width:2"/>
                <line x1="37" y1="105" x2="111" y2="105" id="line4727" style="fill:none;stroke:#000000;stroke-width:2"/>
                <line x1="37" y1="111" x2="111" y2="111" id="line4729" style="fill:none;stroke:#000000;stroke-width:2"/>
                <line x1="37" y1="117" x2="111" y2="117" id="line4731" style="fill:none;stroke:#000000;stroke-width:2"/>
                <line x1="37" y1="129" x2="111" y2="129" id="line4733" style="fill:none;stroke:#70bf41;stroke-width:2"/>
            </g>
        </g>
        <rect style="fill:none" id="rect4742" height="14" width="52.743" y="146.069" x="164"/>
        <g id="g5114">
            <g id="g4736">
                <rect x="150.871" y="136.76801" width="45.956001" height="30.604" id="rect4738" style="fill:#45beee"/>
                <polygon points="193.467,181.695 234.02,151.163 193.467,121.571 " id="polygon4740" style="fill:#45beee"/>
            </g>
        </g>
        <rect style="fill:none" id="rect4766" height="17" width="147" y="206" x="229"/>
        <g id="g5093">
        </g>
        <rect style="fill:none" id="rect4770" height="17" width="147" y="219" x="464.785"/>
        <g id="g5075">
            <g id="Layer_4">
                <path id="path4700" d="m 487.13,111.882 c 0,-9.268 22.407,-16.781 50.047,-16.781 27.641,0 50.047,7.513 50.047,16.781 l 0,1.03 c 0,0 0,-2.118 0,-3.121 0,-1.003 0,-35.739 0,-35.739 l 0,0.388 c 0,-9.268 -22.406,-16.781 -50.047,-16.781 -27.64,0 -50.047,7.513 -50.047,16.781 l 0,-0.388 c 0,0 0,34.519 0,35.728 0,1.209 0,3.132 0,3.132 l 0,-1.03 z" stroke-miterlimit="10" style="fill:none;stroke:#231f20;stroke-miterlimit:10"/>
                <g id="g4702">
                    <path id="path4704" d="m 587.021,151.283 c 0,0 0,34.738 0,35.74 0,1.002 0.354,3.121 0.354,3.121 0,9.268 -22.76,16.779 -50.4,16.779 -27.64,0 -50.399,-7.512 -50.399,-16.779 0,0 0.353,-1.924 0.353,-3.133 0,-1.209 0,-35.729 0,-35.729 0,9.268 22.407,16.781 50.047,16.781 27.638,0.001 50.045,-7.512 50.045,-16.78 z" stroke-miterlimit="10" style="fill:#ffffff;stroke:#231f20;stroke-miterlimit:10"/>
                </g>
                <g id="g4706">
                    <path id="path4708" d="m 587.021,112.601 c 0,0 0,34.736 0,35.739 0,1.002 0.354,3.121 0.354,3.121 0,9.268 -22.76,16.779 -50.4,16.779 -27.64,0 -50.399,-7.512 -50.399,-16.779 0,0 0.353,-1.923 0.353,-3.132 0,-1.209 0,-35.728 0,-35.728 0,9.268 22.407,16.78 50.047,16.78 27.638,0 50.045,-7.512 50.045,-16.78 z" stroke-miterlimit="10" style="fill:#ffffff;stroke:#231f20;stroke-miterlimit:10"/>
                </g>
                <g id="g4710">
                    <path id="path4712" d="m 587.021,73.628 c 0,0 0,34.737 0,35.739 0,1.002 0.354,3.12 0.354,3.12 0,9.269 -22.76,16.781 -50.4,16.781 -27.64,0 -50.399,-7.513 -50.399,-16.781 0,0 0.353,-1.922 0.353,-3.131 0,-1.209 0,-35.728 0,-35.728 0,9.268 22.407,16.78 50.047,16.78 27.638,0.001 50.045,-7.512 50.045,-16.78 z" stroke-miterlimit="10" style="fill:#ffffff;stroke:#231f20;stroke-miterlimit:10"/>
                </g>
                <g id="g4714">
                    <polygon id="polygon4716" points="573.216,66.381 513.908,66.381 500.732,80.875 560.039,80.875 " stroke-miterlimit="10" style="fill:#ffffff;stroke:#000000;stroke-miterlimit:10"/>
                    <line id="line4718" y2="72.310997" x2="562.66199" y1="72.310997" x1="513.90802" style="fill:none;stroke:#70bf41;stroke-width:2"/>
                </g>
            </g>
        </g>
        <rect x="464.785" y="219" width="147" height="17" id="rect4977" style="fill:none"/>
    </g>
    <g transform="translate(100,0)" id="g5323">
        <g id="g5196">
            <path style="fill:#b5b5b5;stroke:#ffffff;stroke-miterlimit:10" stroke-miterlimit="10" d="m 598,313 c 0,-8.284 -6.716,-15 -15,-15 l -385,0 c -8.284,0 -15,6.716 -15,15 l 0,167 c 0,8.284 6.716,15 15,15 l 385,0 c 8.284,0 15,-6.716 15,-15 l 0,-167 z" id="path4817"/>
            <g transform="translate(0,250)" id="g5055">
                <g id="g5023">
                    <text transform="matrix(1 0 0 1 197 75)" font-family="'Consolas'" font-size="18">remote .git</text>
                </g>
            </g>
        </g>
    </g>
</g>
</svg>

