<?xml version="1.0" encoding="utf-8"?>
<!-- Generator: Adobe Illustrator 15.1.0, SVG Export Plug-In . SVG Version: 6.00 Build 0)  -->
<!DOCTYPE svg PUBLIC "-//W3C//DTD SVG 1.1//EN" "http://www.w3.org/Graphics/SVG/1.1/DTD/svg11.dtd">
<svg version="1.1" xmlns="http://www.w3.org/2000/svg" xmlns:xlink="http://www.w3.org/1999/xlink" x="0px" y="0px" width="622px"
	 height="218px" viewBox="0 0 622 218" enable-background="new 0 0 622 218" xml:space="preserve">
<g id="Layer_5">
	<path fill="#B5B5B5" stroke="#FFFFFF" stroke-miterlimit="10" d="M598,23c0-8.284-6.716-15-15-15H198c-8.284,0-15,6.716-15,15v167
		c0,8.284,6.716,15,15,15h385c8.284,0,15-6.716,15-15V23z"/>
	<rect x="197" y="19" fill="none" width="70" height="28"/>
	<text transform="matrix(1 0 0 1 197 31.4199)" font-family="'Consolas'" font-size="18">.git</text>
</g>
<g id="Layer_1">
	<g>
		<rect x="24" y="45" fill="#DCDEE0" width="100" height="128"/>
		<rect x="24" y="45" fill="none" stroke="#85888D" stroke-width="2" width="100" height="128"/>
		<line fill="none" stroke="#000000" stroke-width="2" x1="37" y1="65" x2="111" y2="65"/>
		<line fill="none" stroke="#000000" stroke-width="2" x1="37" y1="71" x2="111" y2="71"/>
		<line fill="none" stroke="#000000" stroke-width="2" x1="37" y1="77" x2="111" y2="77"/>
		<line fill="none" stroke="#70BF41" stroke-width="2" x1="37" y1="89" x2="111" y2="89"/>
	</g>
	<rect style="fill:none" id="rect4742" height="14" width="52.743" y="146.069" x="164"/>
	<rect style="fill:none" id="rect4766" height="17" width="147" y="206" x="229"/>
	<g id="Layer_4" transform="translate(-20,-20)">
		<path id="path4700" d="m 487.13,111.882 c 0,-9.268 22.407,-16.781 50.047,-16.781 27.641,0 50.047,7.513 50.047,16.781 l 0,1.03 c 0,0 0,-2.118 0,-3.121 0,-1.003 0,-35.739 0,-35.739 l 0,0.388 c 0,-9.268 -22.406,-16.781 -50.047,-16.781 -27.64,0 -50.047,7.513 -50.047,16.781 l 0,-0.388 c 0,0 0,34.519 0,35.728 0,1.209 0,3.132 0,3.132 l 0,-1.03 z" stroke-miterlimit="10" style="fill:url(#linearGradient5457);stroke:#231f20;stroke-miterlimit:10"/>
		<g id="g4702">
			<path id="path4704" d="m 587.021,151.283 c 0,0 0,34.738 0,35.74 0,1.002 0.354,3.121 0.354,3.121 0,9.268 -22.76,16.779 -50.4,16.779 -27.64,0 -50.399,-7.512 -50.399,-16.779 0,0 0.353,-1.924 0.353,-3.133 0,-1.209 0,-35.729 0,-35.729 0,9.268 22.407,16.781 50.047,16.781 27.638,0.001 50.045,-7.512 50.045,-16.78 z" stroke-miterlimit="10" style="fill:#ffffff;stroke:#231f20;stroke-miterlimit:10"/>
		</g>
		<g id="g4706">
			<path id="path4708" d="m 587.021,112.601 c 0,0 0,34.736 0,35.739 0,1.002 0.354,3.121 0.354,3.121 0,9.268 -22.76,16.779 -50.4,16.779 -27.64,0 -50.399,-7.512 -50.399,-16.779 0,0 0.353,-1.923 0.353,-3.132 0,-1.209 0,-35.728 0,-35.728 0,9.268 22.407,16.78 50.047,16.78 27.638,0 50.045,-7.512 50.045,-16.78 z" stroke-miterlimit="10" style="fill:#ffffff;stroke:#231f20;stroke-miterlimit:10"/>
		</g>
		<g id="g4710">
			<path id="path4712" d="m 587.021,73.628 c 0,0 0,34.737 0,35.739 0,1.002 0.354,3.12 0.354,3.12 0,9.269 -22.76,16.781 -50.4,16.781 -27.64,0 -50.399,-7.513 -50.399,-16.781 0,0 0.353,-1.922 0.353,-3.131 0,-1.209 0,-35.728 0,-35.728 0,9.268 22.407,16.78 50.047,16.78 27.638,0.001 50.045,-7.512 50.045,-16.78 z" stroke-miterlimit="10" style="fill:#ffffff;stroke:#231f20;stroke-miterlimit:10"/>
		</g>
		<g id="g4714">
			<polygon id="polygon4716" points="573.216,66.381 513.908,66.381 500.732,80.875 560.039,80.875 " stroke-miterlimit="10" style="fill:#ffffff;stroke:#000000;stroke-miterlimit:10"/>
			<line id="line4718" y2="72.310997" x2="562.66199" y1="72.310997" x1="513.90802" style="fill:none;stroke:#70bf41;stroke-width:2"/>
		</g>
	</g>
	<rect x="464.785" y="219" width="147" height="17" id="rect4977" style="fill:none"/>
</g>
<g id="Layer_2">
	<g>
		<rect x="150.871" y="96.768" fill="#45BEEE" width="45.956" height="30.604"/>
		<polygon fill="#45BEEE" points="193.467,81.571 193.467,141.696 234.02,111.163 		"/>
	</g>
</g>
</svg>
